HIERARCHY
ROOT Hips
{
	OFFSET 0.00000 0.00000 0.00000
	CHANNELS 6 Xposition Yposition Zposition Zrotation Yrotation Xrotation 
	JOINT LHipJoint
	{
		OFFSET 0 0 0
		CHANNELS 3 Zrotation Yrotation Xrotation
		JOINT LeftHip
		{
			OFFSET 1.09156 -1.61406 0.76500
			CHANNELS 3 Zrotation Yrotation Xrotation
			JOINT LeftKnee
			{
				OFFSET 2.33750 -6.42225 0.00000
				CHANNELS 3 Zrotation Yrotation Xrotation
				JOINT LeftAnkle
				{
					OFFSET 2.49247 -6.84800 0.00000
					CHANNELS 3 Zrotation Yrotation Xrotation
					JOINT LeftToe
					{
						OFFSET 0.15312 -0.42069 1.45461
						CHANNELS 3 Zrotation Yrotation Xrotation
						End Site
						{
							OFFSET 0.00000 -0.00000 0.77046
						}
					}
				}
			}
		}
	}
	JOINT RHipJoint
	{
		OFFSET 0 0 0
		CHANNELS 3 Zrotation Yrotation Xrotation
		JOINT RightHip
		{
			OFFSET -0.99883 -1.61406 0.76500
			CHANNELS 3 Zrotation Yrotation Xrotation
			JOINT RightKnee
			{
				OFFSET -2.36877 -6.50815 0.00000
				CHANNELS 3 Zrotation Yrotation Xrotation
				JOINT RightAnkle
				{
					OFFSET -2.53452 -6.96353 0.00000
					CHANNELS 3 Zrotation Yrotation Xrotation
					JOINT RightToe
					{
						OFFSET -0.13156 -0.36145 1.63237
						CHANNELS 3 Zrotation Yrotation Xrotation
						End Site
						{
							OFFSET -0.00000 -0.00000 0.84979
						}
					}
				}
			}
		}
	}
	JOINT lowerback
	{
		OFFSET 0 0 0
		CHANNELS 3 Zrotation Yrotation Xrotation
		JOINT Chest
		{
			OFFSET -0.02431 1.98242 -0.13616
			CHANNELS 3 Zrotation Yrotation Xrotation
			JOINT Chest2
			{
				OFFSET 0.03629 1.98974 -0.02954
				CHANNELS 3 Zrotation Yrotation Xrotation
				JOINT lowerneck
				{
					OFFSET 0 0 0
					CHANNELS 3 Zrotation Yrotation Xrotation
					JOINT Neck
					{
						OFFSET 0.09349 1.40783 0.22333
						CHANNELS 3 Zrotation Yrotation Xrotation
						JOINT Head
						{
							OFFSET -0.04273 1.44500 -0.06495
							CHANNELS 3 Zrotation Yrotation Xrotation
							End Site
							{
								OFFSET -0.02251 1.44600 -0.04544
							}
						}
					}
				}
				JOINT LeftCollar
				{
					OFFSET 0 0 0
					CHANNELS 3 Zrotation Yrotation Xrotation
					JOINT LeftShoulder
					{
						OFFSET 3.49137 0.85126 -0.29740
CHANNELS 3 Zrotation Xrotation Yrotation
						JOINT LeftElbow
						{
OFFSET 0 -5.060350 0.000000
CHANNELS 3 Zrotation Xrotation Yrotation
							JOINT LeftWrist
							{
OFFSET 0 -3.147800 0.000000
CHANNELS 3 Zrotation Xrotation Yrotation
								JOINT lhand
								{
									OFFSET 0 0 0
CHANNELS 3 Zrotation Xrotation Yrotation
									JOINT LFingers
									{
OFFSET 0 -0.606750 0.000000
CHANNELS 3 Zrotation Xrotation Yrotation
										End Site
										{
OFFSET 0 -0.489180 0.000000
										}
									}
								}
								JOINT LThumb
								{
OFFSET 0 0.000000 0.000000
CHANNELS 3 Zrotation Xrotation Yrotation
									End Site
									{
OFFSET 0 -0.496640 0.496640
									}
								}
							}
						}
					}
				}
				JOINT RightCollar
				{
					OFFSET 0 0 0
					CHANNELS 3 Zrotation Yrotation Xrotation
					JOINT RightShoulder
					{
						OFFSET -3.28101 0.69707 0.00747
CHANNELS 3 Zrotation Xrotation Yrotation
						JOINT RightElbow
						{
OFFSET 0 -5.122730 -0.000000
CHANNELS 3 Zrotation Xrotation Yrotation
							JOINT RightWrist
							{
OFFSET 0 -3.422000 0.000000
CHANNELS 3 Zrotation Xrotation Yrotation
								JOINT rhand
								{
									OFFSET 0 0 0
CHANNELS 3 Zrotation Xrotation Yrotation
									JOINT RFingers
									{
OFFSET 0 -0.704600 0.000000
CHANNELS 3 Zrotation Xrotation Yrotation
										End Site
										{
OFFSET 0 -0.568070 0.000000
										}
									}
								}
								JOINT RThumb
								{
OFFSET 0 0.000000 0.000000
CHANNELS 3 Zrotation Xrotation Yrotation
									End Site
									{
OFFSET 0 -0.576740 0.576740
									}
								}
							}
						}
					}
				}
			}
		}
	}
}
MOTION
Frames: 4
Frame Time: 0.008333333333333333
2.571770 27.551866 -1.017301 0.056947 88.428493 12.332973 0.000000 0.000000 0.000000 -18.742153 -6.450532 -25.240402 2.407624 9.667946 27.907848 0.470391 -11.717708 -13.749660 0.064161 -1.633807 -4.494681 0.000000 0.000000 0.000000 17.667224 -0.303984 -1.996747 -0.657486 -5.186444 14.441041 -0.383129 -8.407300 -17.650694 -0.013290 0.740793 -2.035767 -2.630332 2.730101 -1.568196 -0.178276 3.738752 2.146338 1.434829 1.812278 2.928791 15.243642 9.056731 -0.206623 -13.793207 11.872304 -5.961392 -6.433724 5.944531 0.055170 0.000000 0.000000 0.000000 14.634174 -25.050994 -46.478914 79.523582 -59.580855 50.940022 38.434855 20.786180 -30.724352 0.000000 0.000000 0.000000 -7.125000 0.000000 0.000000 10.025486 66.914468 -5.314019 0.000000 0.000000 0.000000 -9.658377 -26.397060 49.408313 -60.096103 -56.335205 -34.421141 -58.787766 -44.647988 -47.993525 0.000000 0.000000 0.000000 7.125000 0.000000 0.000000 -6.925633 -34.673986 -9.672422
2.554877 27.537080 -0.980679 -3.370202 87.910615 8.253958 0.000000 0.000000 0.000000 -18.532997 -6.053490 -24.634622 2.422623 9.695828 27.997226 0.510893 -11.570239 -14.098621 0.071375 -1.723178 -4.741142 0.000000 0.000000 0.000000 17.987810 0.133651 -1.216286 -0.658745 -5.191142 14.454497 -0.390523 -8.810062 -18.137972 -0.001305 0.230976 -0.634707 -1.955946 2.951188 -1.418162 -0.372308 4.002434 1.678165 0.846674 1.968259 2.409080 15.549309 9.053992 0.997033 -14.398689 11.994708 -6.424007 -6.737083 6.045732 -0.193539 0.000000 0.000000 0.000000 14.782882 -21.826201 -49.408240 68.588549 -58.193514 41.569760 37.109463 21.987031 -27.600657 0.000000 0.000000 0.000000 -7.125000 0.000000 0.000000 8.686725 63.023272 -3.816825 0.000000 0.000000 0.000000 -8.228469 -22.491010 49.028998 -52.617268 -53.997092 -28.278382 -61.539114 -47.096999 -49.095692 0.000000 0.000000 0.000000 7.125000 0.000000 0.000000 -7.351729 -37.219430 -10.341494
2.509516 27.513783 -0.945362 12.386289 87.527546 23.662653 0.000000 0.000000 0.000000 -19.061648 -6.429367 -24.288160 2.438234 9.724730 28.089786 0.545068 -11.082383 -14.270842 0.086629 -1.898160 -5.224364 0.000000 0.000000 0.000000 17.341552 -0.114231 -1.234223 -0.685938 -5.295197 14.752471 -0.405724 -8.903835 -18.406472 -0.010208 0.650695 -1.788161 -2.018270 3.023142 -1.631962 -0.704667 4.107955 1.418519 0.548524 2.025571 2.279247 15.158027 9.045204 0.253647 -13.589941 11.981103 -4.631128 -6.333270 6.001530 0.363791 0.000000 0.000000 0.000000 14.549903 -19.132897 -49.956894 61.345082 -56.656053 35.462902 37.380274 22.553499 -29.626720 0.000000 0.000000 0.000000 -7.125000 0.000000 0.000000 8.686388 65.373410 -4.291406 0.000000 0.000000 0.000000 -6.885653 -18.936487 48.332497 -46.228637 -51.354329 -23.195019 -64.288348 -50.993467 -50.622252 0.000000 0.000000 0.000000 7.125000 0.000000 0.000000 -7.398261 -40.054995 -10.460471
2.471388 27.497483 -0.900920 9.938702 86.865999 20.459585 0.000000 0.000000 0.000000 -18.967582 -5.906452 -23.680096 2.445625 9.738279 28.133360 0.587709 -10.886270 -14.628004 0.095138 -1.989446 -5.476352 0.000000 0.000000 0.000000 17.289529 -0.073899 -0.530746 -0.685607 -5.293838 14.748560 -0.536473 -8.004385 -19.006817 -0.016250 0.816150 -2.243253 -1.636213 3.178043 -1.611162 -0.855399 4.306448 1.362440 0.186758 2.132859 2.244848 15.562271 8.918347 0.274011 -13.400951 11.858297 -3.810781 -6.321228 5.929632 0.591921 0.000000 0.000000 0.000000 14.537199 -16.375166 -50.843462 53.764823 -54.403211 29.209615 36.381454 23.533079 -28.569986 0.000000 0.000000 0.000000 -7.125000 0.000000 0.000000 7.511157 63.902614 -3.451149 0.000000 0.000000 0.000000 -5.759831 -16.187345 47.525148 -39.961785 -48.045417 -18.411409 -66.806292 -54.383259 -51.758686 0.000000 0.000000 0.000000 7.125000 0.000000 0.000000 -7.499341 -42.407719 -10.629240
